<svg width="80" height="32" viewBox="0 0 80 32" fill="none" xmlns="http://www.w3.org/2000/svg">
<path d="M34.862 24.18C34.25 24.18 33.692 24.12 33.188 24C32.696 23.868 32.252 23.664 31.856 23.388L32.234 20.706C32.486 20.886 32.762 21.054 33.062 21.21C33.362 21.354 33.668 21.474 33.98 21.57C34.292 21.666 34.598 21.714 34.898 21.714C35.102 21.714 35.3 21.69 35.492 21.642C35.684 21.594 35.852 21.516 35.996 21.408C36.152 21.288 36.272 21.138 36.356 20.958C36.44 20.778 36.482 20.556 36.482 20.292C36.482 20.064 36.44 19.854 36.356 19.662C36.272 19.47 36.14 19.278 35.96 19.086C35.792 18.882 35.558 18.648 35.258 18.384C34.886 18.072 34.568 17.754 34.304 17.43C34.052 17.106 33.86 16.752 33.728 16.368C33.596 15.972 33.53 15.516 33.53 15C33.53 14.424 33.62 13.896 33.8 13.416C33.992 12.924 34.268 12.498 34.628 12.138C34.988 11.766 35.432 11.478 35.96 11.274C36.5 11.07 37.118 10.968 37.814 10.968C38.342 10.968 38.876 11.046 39.416 11.202C39.956 11.346 40.448 11.568 40.892 11.868L39.758 14.19C39.386 13.95 39.026 13.758 38.678 13.614C38.342 13.47 38.018 13.398 37.706 13.398C37.514 13.398 37.334 13.428 37.166 13.488C37.01 13.548 36.866 13.638 36.734 13.758C36.614 13.866 36.518 14.004 36.446 14.172C36.386 14.34 36.356 14.532 36.356 14.748C36.356 14.952 36.392 15.15 36.464 15.342C36.548 15.534 36.686 15.732 36.878 15.936C37.07 16.14 37.334 16.374 37.67 16.638C38.066 16.95 38.384 17.274 38.624 17.61C38.864 17.934 39.038 18.294 39.146 18.69C39.266 19.074 39.326 19.512 39.326 20.004C39.326 20.58 39.23 21.126 39.038 21.642C38.846 22.146 38.558 22.59 38.174 22.974C37.802 23.358 37.334 23.658 36.77 23.874C36.218 24.078 35.582 24.18 34.862 24.18ZM44.4214 24.18C43.7014 24.18 43.0834 24.054 42.5674 23.802C42.0514 23.538 41.6554 23.166 41.3794 22.686C41.1154 22.194 40.9834 21.624 40.9834 20.976C40.9834 20.772 40.9954 20.544 41.0194 20.292C41.0554 20.028 41.0974 19.77 41.1454 19.518L42.9274 11.148H45.6634L43.8814 19.536C43.8334 19.728 43.7974 19.914 43.7734 20.094C43.7494 20.274 43.7374 20.442 43.7374 20.598C43.7374 20.994 43.8214 21.294 43.9894 21.498C44.1694 21.69 44.4274 21.786 44.7634 21.786C45.0994 21.786 45.3754 21.708 45.5914 21.552C45.8194 21.396 46.0114 21.15 46.1674 20.814C46.3354 20.466 46.4794 20.022 46.5994 19.482L48.3814 11.148H51.0994L49.2454 19.824C49.0534 20.736 48.7594 21.522 48.3634 22.182C47.9794 22.83 47.4634 23.328 46.8154 23.676C46.1794 24.012 45.3814 24.18 44.4214 24.18ZM50.6345 24L53.3525 11.148H56.1785C57.4505 11.148 58.4045 11.412 59.0405 11.94C59.6885 12.468 60.0125 13.248 60.0125 14.28C60.0125 15.012 59.9045 15.666 59.6885 16.242C59.4725 16.806 59.1725 17.28 58.7885 17.664C58.4045 18.048 57.9665 18.342 57.4745 18.546L59.0945 24H56.0885L54.9365 19.104H54.3965L53.3705 24H50.6345ZM55.3145 16.908C55.6145 16.908 55.8785 16.848 56.1065 16.728C56.3345 16.596 56.5265 16.422 56.6825 16.206C56.8385 15.99 56.9585 15.744 57.0425 15.468C57.1265 15.18 57.1685 14.886 57.1685 14.586C57.1685 14.202 57.0665 13.914 56.8625 13.722C56.6705 13.518 56.3705 13.416 55.9625 13.416H55.6025L54.8645 16.908H55.3145ZM64.8971 24.18C63.5531 24.18 62.5331 23.802 61.8371 23.046C61.1411 22.278 60.7931 21.18 60.7931 19.752C60.7931 18.888 60.8831 18.036 61.0631 17.196C61.2431 16.356 61.5131 15.564 61.8731 14.82C62.2331 14.064 62.6831 13.398 63.2231 12.822C63.7631 12.246 64.3931 11.796 65.1131 11.472C65.8451 11.136 66.6671 10.968 67.5791 10.968C68.2151 10.968 68.8091 11.046 69.3611 11.202C69.9251 11.346 70.4051 11.544 70.8011 11.796L69.6671 14.082C69.3191 13.842 68.9531 13.656 68.5691 13.524C68.1971 13.392 67.7951 13.326 67.3631 13.326C66.7631 13.326 66.2291 13.524 65.7611 13.92C65.3051 14.304 64.9151 14.808 64.5911 15.432C64.2671 16.044 64.0211 16.716 63.8531 17.448C63.6971 18.168 63.6191 18.864 63.6191 19.536C63.6191 20.04 63.6731 20.46 63.7811 20.796C63.9011 21.132 64.0811 21.384 64.3211 21.552C64.5611 21.72 64.8611 21.804 65.2211 21.804C65.4131 21.804 65.5931 21.792 65.7611 21.768C65.9291 21.744 66.1031 21.708 66.2831 21.66L66.8591 18.942H65.2751L65.7431 16.656H70.0271L68.5871 23.442C67.9631 23.67 67.3391 23.85 66.7151 23.982C66.1031 24.114 65.4971 24.18 64.8971 24.18ZM70.5681 24L73.2861 11.148H79.3701L78.8841 13.47H75.5361L74.9601 16.17H78.0741L77.5881 18.51H74.4561L73.7721 21.642H77.1561L76.6521 24H70.5681Z" fill="#2E6966"/>
<g clip-path="url(#clip0_201_139)">
<path d="M8.35293 14.3668C15.2354 8.58812 21.9677 2.60912 29 -3C25.3113 2.82499 21.5179 8.57259 17.8292 14.3973C14.6654 14.4128 11.5019 14.4131 8.35293 14.3668ZM14.1708 17.5872C17.3494 17.5872 20.5132 17.5872 23.677 17.6335C16.7498 23.3811 10.0474 29.4061 3 35C6.68867 29.175 10.4821 23.4121 14.1708 17.5872Z" fill="#2E6966"/>
</g>
<defs>
<clipPath id="clip0_201_139">
<rect width="32" height="32" fill="white"/>
</clipPath>
</defs>
</svg>
